<svg width="300" height="300" xmlns="http://www.w3.org/2000/svg"><g transform="translate(10 10)" fill="none" fill-rule="evenodd"><rect stroke="#FFF" stroke-width="20" width="280" height="280" rx="140"/><path d="M205.093 194.308c11.207 0 20.292 9.06 20.292 20.235 0 11.176-9.085 20.236-20.292 20.236-11.208 0-20.293-9.06-20.293-20.236s9.085-20.235 20.293-20.235Zm-74.037-13.27c14.943 0 27.057 12.08 27.057 26.981 0 14.901-12.114 26.981-27.057 26.981C116.114 235 104 222.92 104 208.02c0-14.902 12.114-26.982 27.056-26.982ZM188.797 97C209.344 97 226 113.61 226 134.099c0 20.489-16.656 37.098-37.203 37.098-20.546 0-37.202-16.61-37.202-37.098 0-20.49 16.656-37.099 37.202-37.099Z" fill="#FFF" fill-rule="nonzero"/></g></svg>